:FULLY-SPECIFIED
:FORCE-ALL-JOINTS-BE-3DOF
:DEGREES
408
root 4.49996 16.236 -11.2836 3.36704 -35.6643 -3.6372
lfemur -29.6792 5.85764 -7.94186
ltibia 44.9484 -0 0
lfoot -11.8251 12.9818 0.119812
ltoes 0.634818 -0 0
rfemur -36.6369 -18.4779 24.2439
rtibia 73.4265 -0 0
rfoot 2.53957 -2.05567 -0.00322065
rtoes 30.5206 -0 0
lowerback 5.2473 4.13495 0.841659
upperback 1.72455 5.50629 -1.59241
thorax -0.920992 2.75216 -2.4153
lowerneck -6.37753 2.38217 7.532
upperneck 3.95831 2.51488 0.0549191
head 2.52064 1.37019 -1.19011
lclavicle 4.31363e-14 -7.15625e-15 0
lhumerus -44.5296 -18.5979 94.1883
lradius 50.3505 -0 0
lwrist 17.3562 0 0
lhand -18.0262 2.55991 0.0618005
lfingers 7.12502 -0 0
lthumb 8.24421 32.3558 0.0565519
rclavicle 4.31363e-14 -7.15625e-15 0
rhumerus -44.9649 9.58663 -91.3759
rradius 63.4212 -0 0
rwrist 9.2608 0 0
rhand -21.0889 -17.7581 -0.0076284
rfingers 7.12502 -0 0
rthumb 5.28764 -47.6358 -0.0043829
409
root 4.44485 16.2135 -11.1804 3.15805 -35.901 -3.49211
lfemur -29.4039 6.33556 -8.0258
ltibia 45.6811 -0 0
lfoot -12.5436 12.6782 0.121716
ltoes 0.66857 -0 0
rfemur -37.9959 -18.4647 23.8203
rtibia 73.3413 -0 0
rfoot 2.50653 -1.87837 -0.00327178
rtoes 30.1897 -0 0
lowerback 5.39942 4.09738 0.829029
upperback 1.7465 5.45409 -1.63986
thorax -0.981868 2.7254 -2.46543
lowerneck -6.38985 2.58287 7.67732
upperneck 4.00121 2.78286 -0.207571
head 2.55854 1.49925 -1.28988
lclavicle 4.31363e-14 -7.15625e-15 0
lhumerus -44.5185 -18.5302 94.2225
lradius 50.1493 -0 0
lwrist 17.1249 0 0
lhand -18.4275 2.27971 0.0627819
lfingers 7.12502 -0 0
lthumb 7.85688 32.0901 0.0574499
rclavicle 4.31363e-14 -7.15625e-15 0
rhumerus -44.9855 9.35916 -91.1625
rradius 63.8677 -0 0
rwrist 9.41826 0 0
rhand -21.5949 -17.7307 -0.00774953
rfingers 7.12502 -0 0
rthumb 4.79912 -47.6195 -0.0044525
410
root 4.38975 16.191 -11.0771 2.9477 -36.1374 -3.34553
lfemur -29.129 6.81388 -8.1075
ltibia 46.4138 -0 0
lfoot -13.262 12.3745 0.119812
ltoes 0.702322 -0 0
rfemur -39.3548 -18.4611 23.3964
rtibia 73.2561 -0 0
rfoot 2.47348 -1.70108 -0.00322065
rtoes 29.8587 -0 0
lowerback 5.55155 4.05984 0.816299
upperback 1.76849 5.4019 -1.68732
thorax -1.04272 2.69859 -2.51553
lowerneck -6.40167 2.78361 7.82263
upperneck 4.04289 3.05102 -0.469922
head 2.59622 1.62837 -1.38956
lclavicle 4.31363e-14 -7.15625e-15 0
lhumerus -44.5074 -18.4625 94.2566
lradius 49.9481 -0 0
lwrist 16.8937 0 0
lhand -18.8288 1.9995 0.0618005
lfingers 7.12502 -0 0
lthumb 7.46955 31.8244 0.0565519
rclavicle 4.31363e-14 -7.15625e-15 0
rhumerus -45.007 9.13177 -90.9492
rradius 64.3142 -0 0
rwrist 9.57573 0 0
rhand -22.1009 -17.7033 -0.0076284
rfingers 7.12502 -0 0
rthumb 4.31059 -47.6032 -0.0043829
411
root 4.33464 16.1686 -10.9739 2.73596 -36.3733 -3.19742
lfemur -28.8546 7.29258 -8.18698
ltibia 47.1465 -0 0
lfoot -13.9805 12.071 0.114101
ltoes 0.736073 -0 0
rfemur -40.7137 -18.467 22.9726
rtibia 73.1708 -0 0
rfoot 2.44044 -1.52378 -0.00306728
rtoes 29.5277 -0 0
lowerback 5.70368 4.02233 0.80347
upperback 1.79052 5.34974 -1.73479
thorax -1.10355 2.67172 -2.56561
lowerneck -6.41297 2.98438 7.96791
upperneck 4.08335 3.31938 -0.732147
head 2.63368 1.75755 -1.48917
lclavicle 4.31363e-14 -7.15625e-15 0
lhumerus -44.4963 -18.3948 94.2908
lradius 49.7469 -0 0
lwrist 16.6625 0 0
lhand -19.2301 1.71931 0.0588566
lfingers 7.12502 -0 0
lthumb 7.08223 31.5588 0.053858
rclavicle 4.31363e-14 -7.15625e-15 0
rhumerus -45.0292 8.90446 -90.736
rradius 64.7607 -0 0
rwrist 9.7332 0 0
rhand -22.6068 -17.6758 -0.007265
rfingers 7.12502 -0 0
rthumb 3.82207 -47.5869 -0.00417411
